<?xml version="1.0" encoding="iso-8859-1"?>
<!-- Generator: Adobe Illustrator 19.0.0, SVG Export Plug-In . SVG Version: 6.00 Build 0)  -->
<svg xmlns="http://www.w3.org/2000/svg" xmlns:xlink="http://www.w3.org/1999/xlink" version="1.1" id="Layer_1" x="0px" y="0px" viewBox="0 0 512.001 512.001" style="enable-background:new 0 0 512.001 512.001;" xml:space="preserve" width="512" height="512">
<g id="XMLID_1328_">
	<g id="XMLID_155_">
		<path id="XMLID_191_" d="M501.995,137.968c5.522,0,10-4.477,10-10v-40c0-5.523-4.478-10-10-10h-66.19    c-19.599,0-36.688,13.259-41.559,32.243l-22.555,87.917h-59.857l2.111-27.657c16.873-6.944,28.196-23.465,28.196-42.148    c0-9.791-3.113-18.863-8.387-26.301c4.371-6.662,6.722-14.451,6.722-22.603c0-11.039-4.299-21.417-12.104-29.223    c-7.807-7.806-18.185-12.104-29.223-12.104c-5.092,0-10.039,0.925-14.662,2.677C278.851,25.733,264.336,15,247.357,15    c-11.009,0-20.981,4.514-28.171,11.785c-2.268-3.649-4.949-7.077-8.058-10.185C200.424,5.896,186.19,0,171.052,0    s-29.372,5.896-40.077,16.6c-3.105,3.105-5.796,6.511-8.06,10.138C115.729,19.495,105.775,15,94.79,15    C77.811,15,63.296,25.733,57.66,40.769c-4.623-1.751-9.57-2.677-14.662-2.677c-11.039,0-21.417,4.299-29.223,12.104    C5.97,58.001,1.672,68.38,1.672,79.418c0,8.153,2.351,15.941,6.722,22.603c-5.273,7.438-8.387,16.51-8.387,26.301    c0,18.592,11.033,34.871,27.621,41.924L52.971,502.76c0.397,5.213,4.742,9.24,9.971,9.24h215.667c5.228,0,9.573-4.026,9.971-9.239    l11.662-152.774l16.813,153.105c0.557,5.07,4.84,8.908,9.94,8.908h66.986c0,0,0.015,0.001,0.022,0.001s0.015-0.001,0.023-0.001    h66.968c5.101,0,9.384-3.838,9.94-8.908l26.022-236.965h5.038c5.522,0,10-4.477,10-10v-48c0-5.523-4.478-10-10-10h-68.36    l15.434-60.159H501.995z M227.718,54.639c0-10.829,8.811-19.639,19.64-19.639s19.64,8.81,19.64,19.639    c0,0.447,0.04,0.885,0.097,1.316c-0.392,2.977,0.545,6.095,2.832,8.383c3.906,3.905,10.236,3.905,14.143,0    c4.027-4.028,9.383-6.246,15.08-6.246c5.696,0,11.052,2.218,15.08,6.247c4.028,4.028,6.247,9.384,6.247,15.08    c0,3.148-0.7,6.182-1.986,8.955c-6.513-3.591-13.99-5.64-21.938-5.64c-5.522,0-10,4.477-10,10s4.478,10,10,10    c14.11,0,25.59,11.479,25.59,25.589c0,8.689-4.363,16.541-11.24,21.197c-1.992-4.92-4.865-9.491-8.531-13.448    c-8.338-8.999-20.155-14.16-32.423-14.16c-8.688,0-16.792,2.53-23.632,6.876c8.069-12.248,9.944-28.226,3.545-42.59    c-4.652-10.442-12.865-18.202-22.573-22.508c0.352-2.824,0.472-5.648,0.401-8.454C227.699,55.038,227.718,54.841,227.718,54.639z     M225.743,266.075c-11.547-12.451-27.261-20.97-44.904-23.336v-78.375c0-12.38,10.072-22.452,22.452-22.452    s22.452,10.072,22.452,22.452v1.751V266.075z M115.934,166.158v-1.793c0-12.38,10.072-22.452,22.452-22.452    s22.452,10.072,22.452,22.452v78.375c-17.643,2.366-33.357,10.885-44.904,23.336V166.158z M170.839,262.052    c30.274,0,54.904,24.63,54.904,54.904s-24.63,54.904-54.904,54.904s-54.904-24.63-54.904-54.904S140.564,262.052,170.839,262.052z     M196.986,30.743c7.715,7.714,11.527,18.376,10.591,29.125c-4.962,0.181-9.966,1.2-14.811,3.137    c-1.715,0.464-3.328,1.39-4.641,2.774l-0.15,0.159c-3.28,3.462-3.66,8.76-0.905,12.654c2.755,3.895,7.875,5.299,12.233,3.36    c12.319-5.489,26.799,0.07,32.286,12.385c5.223,11.724,0.433,25.406-10.663,31.428c-5.375-2.466-11.345-3.852-17.636-3.852    c-13.006,0-24.659,5.885-32.452,15.125c-7.793-9.24-19.446-15.125-32.452-15.125c-6.247,0-12.178,1.367-17.524,3.801    c-11.029-6.047-15.776-19.686-10.568-31.377c5.487-12.315,19.97-17.872,32.286-12.386c2.962,1.32,6.385,1.121,9.176-0.537    c2.79-1.657,4.603-4.565,4.861-7.8l0.013-0.159c0.403-5.032-2.992-9.491-7.782-10.557c-4.694-1.842-9.534-2.82-14.337-3.017    c-0.133-1.501-0.17-2.998-0.12-4.487c0.011-0.148,0.018-0.297,0.022-0.446c0.415-9.017,4.141-17.642,10.704-24.205    C159.418,16.442,182.685,16.442,196.986,30.743z M20.007,128.323c0-14.11,11.479-25.589,25.589-25.589c5.522,0,10-4.477,10-10    s-4.478-10-10-10c-7.948,0-15.425,2.049-21.938,5.64c-1.286-2.773-1.986-5.807-1.986-8.955c0-5.696,2.219-11.052,6.247-15.081    c4.027-4.028,9.384-6.246,15.08-6.246s11.053,2.218,15.08,6.246c3.905,3.906,10.235,3.906,14.143,0    c2.287-2.287,3.224-5.406,2.832-8.383c0.057-0.432,0.097-0.869,0.097-1.316C75.15,43.81,83.961,35,94.79,35    c10.71,0,19.43,8.621,19.621,19.286c-0.126,3.087,0.001,6.202,0.387,9.319c-9.794,4.288-18.089,12.08-22.773,22.594    c-6.444,14.465-4.498,30.57,3.717,42.851c-6.93-4.507-15.188-7.138-24.052-7.138c-12.279,0-24.108,5.166-32.454,14.172    c-3.592,3.876-6.42,8.344-8.408,13.149C24.189,144.563,20.007,136.889,20.007,128.323z M47.513,168    c-0.519-6.808,1.751-13.314,6.392-18.322s10.956-7.766,17.784-7.766c13.369,0,24.245,10.876,24.245,24.245V492H72.209L47.513,168z     M180.839,488.333v-26.473c0-5.523-4.478-10-10-10s-10,4.477-10,10v26.473V492h-44.904V367.838    c13.69,14.762,33.231,24.023,54.904,24.023s41.214-9.262,54.904-24.023V492h-44.904V488.333z M269.344,492h-23.601V166.116    c0-13.346,10.857-24.203,24.203-24.203c6.815,0,13.12,2.753,17.753,7.753c4.633,5,6.898,11.496,6.38,18.292l-2.303,30.169h-5.781    c-5.522,0-10,4.477-10,10v48c0,5.523,4.478,10,10,10h0.59L269.344,492z M452.033,492h-52.058    c-17.213-33.921-16.324-74.772,2.696-107.965c8.274-14.441,13.725-30.102,16.198-46.548c0.821-5.461-2.939-10.555-8.401-11.376    c-5.456-0.824-10.555,2.94-11.376,8.401c-2.104,13.982-6.737,27.299-13.774,39.579c-20.697,36.121-23.141,79.957-7.353,117.908    h-42.008l-24.804-225.873h165.684L452.033,492z M491.995,246.127h-4h-188h-4v-28h196V246.127z M431.623,125.483l-18.637,72.644    H392.34l21.279-82.946c2.6-10.135,11.723-17.213,22.186-17.213h56.19v20h-50.686C436.744,117.968,432.758,121.06,431.623,125.483z    "/>
		<path id="XMLID_206_" d="M170.835,411.86c-2.63,0-5.2,1.07-7.07,2.93c-1.859,1.86-2.93,4.44-2.93,7.07s1.07,5.21,2.93,7.07    c1.87,1.86,4.44,2.93,7.07,2.93s5.21-1.07,7.07-2.93c1.869-1.86,2.93-4.44,2.93-7.07s-1.061-5.21-2.93-7.07    C176.045,412.93,173.465,411.86,170.835,411.86z"/>
		<path id="XMLID_207_" d="M408.455,306c2.64,0,5.21-1.07,7.069-2.93c1.87-1.86,2.931-4.44,2.931-7.07c0-2.63-1.061-5.21-2.931-7.07    c-1.859-1.86-4.43-2.93-7.069-2.93c-2.63,0-5.21,1.07-7.07,2.93c-1.86,1.86-2.93,4.44-2.93,7.07c0,2.63,1.069,5.21,2.93,7.07    S405.825,306,408.455,306z"/>
	</g>
</g>















</svg>
